<svg xmlns="http://www.w3.org/2000/svg" xmlns:xlink="http://www.w3.org/1999/xlink" width="500" zoomAndPan="magnify" viewBox="0 0 375 374.999991" height="500" preserveAspectRatio="xMidYMid meet" version="1.0"><defs><clipPath id="0105df6443"><path d="M 54.070312 54.070312 L 320.929688 54.070312 L 320.929688 320.929688 L 54.070312 320.929688 Z M 54.070312 54.070312 " clip-rule="nonzero"/></clipPath><clipPath id="6ba5ee1580"><path d="M 187.5 54.070312 C 113.808594 54.070312 54.070312 113.808594 54.070312 187.5 C 54.070312 261.191406 113.808594 320.929688 187.5 320.929688 C 261.191406 320.929688 320.929688 261.191406 320.929688 187.5 C 320.929688 113.808594 261.191406 54.070312 187.5 54.070312 Z M 187.5 54.070312 " clip-rule="nonzero"/></clipPath><clipPath id="d039eed112"><path d="M 95.929688 94.769531 L 278.929688 94.769531 L 278.929688 280.019531 L 95.929688 280.019531 Z M 95.929688 94.769531 " clip-rule="nonzero"/></clipPath></defs><rect x="-37.5" width="450" fill="#ffffff" y="-37.499999" height="449.999989" fill-opacity="1"/><rect x="-37.5" width="450" fill="#ffffff" y="-37.499999" height="449.999989" fill-opacity="1"/><g clip-path="url(#0105df6443)"><g clip-path="url(#6ba5ee1580)"><path fill="#000000" d="M 54.070312 54.070312 L 320.929688 54.070312 L 320.929688 320.929688 L 54.070312 320.929688 Z M 54.070312 54.070312 " fill-opacity="1" fill-rule="nonzero"/></g></g><g clip-path="url(#d039eed112)"><path fill="#ffffff" d="M 222.3125 222.769531 L 278.722656 279.164062 C 278.90625 279.351562 278.945312 279.5625 278.847656 279.804688 C 278.746094 280.046875 278.566406 280.171875 278.304688 280.175781 C 249.304688 279.640625 223.585938 270.761719 201.152344 253.539062 C 195.3125 249.066406 187.941406 242.300781 179.039062 233.238281 C 166.050781 220.035156 152.730469 206.6875 139.078125 193.203125 C 138.066406 192.195312 138.273438 191.683594 139.703125 191.671875 C 154.1875 191.554688 169.144531 191.574219 184.570312 191.734375 C 192.125 191.8125 197.988281 191 202.164062 189.292969 C 226.671875 179.316406 227.25 146.105469 202.996094 135.144531 C 199.515625 133.570312 194.636719 132.785156 188.363281 132.796875 C 171.773438 132.828125 154.738281 132.894531 137.246094 133.003906 C 130.941406 133.042969 125.625 132.300781 121.289062 130.773438 C 106.226562 125.464844 96.46875 111.828125 95.933594 95.765625 C 95.929688 95.550781 96.003906 95.363281 96.152344 95.210938 C 96.300781 95.054688 96.480469 94.976562 96.691406 94.976562 C 127.554688 95.15625 156.128906 95.136719 182.414062 94.917969 C 194.03125 94.820312 202.847656 95.582031 208.855469 97.207031 C 244.769531 106.890625 266.824219 144.648438 256.117188 180.578125 C 250.722656 198.691406 239.496094 212.449219 222.433594 221.847656 C 222.351562 221.894531 222.289062 221.953125 222.234375 222.027344 C 222.183594 222.105469 222.152344 222.1875 222.140625 222.277344 C 222.128906 222.371094 222.140625 222.457031 222.167969 222.542969 C 222.199219 222.632812 222.246094 222.707031 222.3125 222.769531 Z M 222.3125 222.769531 " fill-opacity="1" fill-rule="nonzero"/></g></svg>