<svg xmlns="http://www.w3.org/2000/svg" xmlns:xlink="http://www.w3.org/1999/xlink" width="500" zoomAndPan="magnify" viewBox="0 0 375 374.999991" height="500" preserveAspectRatio="xMidYMid meet" version="1.0"><defs><clipPath id="f561e647ba"><path d="M 54.070312 54.070312 L 320.929688 54.070312 L 320.929688 320.929688 L 54.070312 320.929688 Z M 54.070312 54.070312 " clip-rule="nonzero"/></clipPath><clipPath id="d68e2bd729"><path d="M 187.5 54.070312 C 113.808594 54.070312 54.070312 113.808594 54.070312 187.5 C 54.070312 261.191406 113.808594 320.929688 187.5 320.929688 C 261.191406 320.929688 320.929688 261.191406 320.929688 187.5 C 320.929688 113.808594 261.191406 54.070312 187.5 54.070312 Z M 187.5 54.070312 " clip-rule="nonzero"/></clipPath><clipPath id="59e10fef8e"><path d="M 95.929688 94.769531 L 278.929688 94.769531 L 278.929688 280 L 95.929688 280 Z M 95.929688 94.769531 " clip-rule="nonzero"/></clipPath></defs><rect x="-37.5" width="450" fill="#ffffff" y="-37.499999" height="449.999989" fill-opacity="1"/><rect x="-37.5" width="450" fill="#000000" y="-37.499999" height="449.999989" fill-opacity="1"/><g clip-path="url(#f561e647ba)"><g clip-path="url(#d68e2bd729)"><path fill="#ffffff" d="M 54.070312 54.070312 L 320.929688 54.070312 L 320.929688 320.929688 L 54.070312 320.929688 Z M 54.070312 54.070312 " fill-opacity="1" fill-rule="nonzero"/></g></g><g clip-path="url(#59e10fef8e)"><path fill="#000000" d="M 222.214844 222.632812 L 278.582031 278.964844 C 278.765625 279.152344 278.804688 279.367188 278.707031 279.605469 C 278.605469 279.847656 278.425781 279.972656 278.164062 279.976562 C 249.1875 279.441406 223.488281 270.570312 201.070312 253.367188 C 195.234375 248.902344 187.871094 242.144531 178.972656 233.089844 C 165.996094 219.898438 152.6875 206.570312 139.042969 193.097656 C 138.035156 192.089844 138.242188 191.578125 139.667969 191.570312 C 154.140625 191.449219 169.085938 191.46875 184.5 191.628906 C 192.050781 191.707031 197.910156 190.894531 202.082031 189.191406 C 226.570312 179.222656 227.148438 146.050781 202.914062 135.101562 C 199.4375 133.527344 194.5625 132.746094 188.289062 132.753906 C 171.714844 132.785156 154.691406 132.855469 137.214844 132.964844 C 130.914062 133.003906 125.601562 132.261719 121.269531 130.734375 C 106.21875 125.433594 96.46875 111.808594 95.933594 95.765625 C 95.929688 95.546875 96.003906 95.363281 96.152344 95.210938 C 96.300781 95.054688 96.480469 94.976562 96.691406 94.976562 C 127.53125 95.15625 156.082031 95.136719 182.347656 94.917969 C 193.957031 94.820312 202.765625 95.582031 208.769531 97.207031 C 244.65625 106.878906 266.691406 144.59375 255.992188 180.488281 C 250.605469 198.582031 239.386719 212.324219 222.335938 221.710938 C 222.253906 221.757812 222.191406 221.816406 222.140625 221.890625 C 222.089844 221.96875 222.058594 222.050781 222.046875 222.140625 C 222.035156 222.234375 222.042969 222.320312 222.074219 222.40625 C 222.101562 222.492188 222.152344 222.570312 222.214844 222.632812 Z M 222.214844 222.632812 " fill-opacity="1" fill-rule="nonzero"/></g></svg>